<svg width="400" height="400" viewBox="0 0 400 400" xmlns="http://www.w3.org/2000/svg">
  <!-- Background -->
  <rect width="400" height="400" fill="white"/>
  
  <!-- Outer border -->
  <rect x="10" y="10" width="380" height="380" fill="none" stroke="black" stroke-width="5"/>
  
  <!-- Grid lines -->
  <line x1="200" y1="10" x2="200" y2="390" stroke="black" stroke-width="2"/>
  <line x1="10" y1="200" x2="390" y2="200" stroke="black" stroke-width="2"/>
  
  <!-- Diagonals across the marker -->
  <line x1="10" y1="10" x2="390" y2="390" stroke="black" stroke-width="2"/>
  <line x1="390" y1="10" x2="10" y2="390" stroke="black" stroke-width="2"/>
  
  <!-- Orientation marker in top-left: white fill with black outline -->
  <polygon points="10,10 60,10 10,60" fill="white" stroke="black" stroke-width="2"/>
  
  <!-- Additional concentric circles for extra keypoints -->
  <circle cx="200" cy="200" r="70" fill="none" stroke="black" stroke-width="2"/>
  <circle cx="200" cy="200" r="90" fill="none" stroke="black" stroke-width="2"/>
  
  <!-- Additional intersecting lines in the center -->
  <line x1="150" y1="150" x2="250" y2="250" stroke="black" stroke-width="2"/>
  <line x1="250" y1="150" x2="150" y2="250" stroke="black" stroke-width="2"/>
  
  <!-- Central black circle -->
  <circle cx="200" cy="200" r="20" fill="black"/>
  
  <!-- Small circles at cardinal points for extra detail -->
  <circle cx="200" cy="60" r="10" fill="black"/>
  <circle cx="200" cy="340" r="10" fill="black"/>
  <circle cx="60" cy="200" r="10" fill="black"/>
  <circle cx="340" cy="200" r="10" fill="black"/>
  
  <!-- Left side diagonal lines ("/" orientation) -->
  <line x1="15" y1="150" x2="75" y2="110" stroke="black" stroke-width="2"/>
  <line x1="15" y1="190" x2="75" y2="150" stroke="black" stroke-width="2"/>
  <line x1="15" y1="230" x2="75" y2="190" stroke="black" stroke-width="2"/>
  
  <!-- Right side diagonal lines ("\" orientation) -->
  <line x1="320" y1="110" x2="390" y2="150" stroke="black" stroke-width="2"/>
  <line x1="320" y1="150" x2="390" y2="190" stroke="black" stroke-width="2"/>
  <line x1="320" y1="190" x2="390" y2="230" stroke="black" stroke-width="2"/>
  
  <!-- Top vertical lines -->
  <line x1="120" y1="10" x2="120" y2="60" stroke="black" stroke-width="2"/>
  <line x1="180" y1="10" x2="180" y2="60" stroke="black" stroke-width="2"/>
  <line x1="240" y1="10" x2="240" y2="60" stroke="black" stroke-width="2"/>
  
  <!-- Bottom horizontal lines -->
  <line x1="100" y1="340" x2="300" y2="340" stroke="black" stroke-width="2"/>
  <line x1="100" y1="360" x2="300" y2="360" stroke="black" stroke-width="2"/>
  <line x1="100" y1="380" x2="300" y2="380" stroke="black" stroke-width="2"/>
</svg>
